<svg width="1370" height="1369" xmlns="http://www.w3.org/2000/svg" xmlns:xlink="http://www.w3.org/1999/xlink" xml:space="preserve" overflow="hidden"><defs><clipPath id="clip0"><rect x="1515" y="552" width="1370" height="1369"/></clipPath></defs><g clip-path="url(#clip0)" transform="translate(-1515 -552)"><path d="M1874.01 1622.71 2027.77 1703.84 1854.37 1827.96 1817.12 1805.34C1798.89 1793.02 1781.29 1779.86 1764.37 1765.89L1724.55 1729.7ZM2272.82 1621.57 2426.58 1702.69 2125.63 1918.12 2062.15 1908.43C2017.54 1899.31 1974.51 1885.84 1933.52 1868.51L1930.13 1866.88ZM1653.98 1497.81 1807.74 1578.94 1673.39 1675.11 1671.48 1673.01C1643.55 1639.17 1618.8 1602.61 1597.71 1563.77L1588.51 1544.68ZM2839.42 1482.64 2831.64 1503.88C2736.29 1729.3 2523.7 1893.08 2270.31 1918.82L2227.04 1921ZM2252.19 1358.01 2405.95 1439.14 2096.53 1660.64 1942.76 1579.51ZM2774.77 1261.76 2880.39 1317.48 2871.57 1375.26 2868.93 1385.55 2474.29 1668.05 2320.53 1586.92ZM2200.25 552C2555.04 552 2846.86 821.617 2881.96 1167.12L2885 1227.41 2782.34 1173.24 2464.14 1401.02 2239.59 1282.55 1869.8 1547.26 1648.25 1430.37 1564.01 1490.67 1545.81 1440.93C1525.79 1376.56 1515 1308.13 1515 1237.18 1515 858.764 1821.8 552 2200.25 552Z" fill-rule="evenodd"/><path d="M1883 906C1883 993.537 1954.19 1064.5 2042 1064.5L2042 1064.55C1965.16 1064.55 1901.06 1118.88 1886.23 1191.1L1883 1223 1883 1223 1879.77 1191.1C1864.94 1118.88 1800.84 1064.55 1724 1064.55L1724 1064.5C1811.81 1064.5 1883 993.537 1883 906Z" fill="#FFFFFF" fill-rule="evenodd"/><path d="M2526.5 749C2526.5 809.199 2575.08 858 2635 858L2635 858.033C2582.57 858.033 2538.82 895.396 2528.7 945.065L2526.5 967 2526.5 967 2524.3 945.065C2514.18 895.396 2470.43 858.033 2418 858.033L2418 858C2477.92 858 2526.5 809.199 2526.5 749Z" fill="#FFFFFF" fill-rule="evenodd"/><path d="M2075.5 1155C2075.5 1187.31 2101.69 1213.5 2134 1213.5L2134 1213.52C2105.73 1213.52 2082.14 1233.57 2076.69 1260.23L2075.5 1272 2075.5 1272 2074.31 1260.23C2068.86 1233.57 2045.27 1213.52 2017 1213.52L2017 1213.5C2049.31 1213.5 2075.5 1187.31 2075.5 1155Z" fill="#FFFFFF" fill-rule="evenodd"/><path d="M1986 662C1986 694.309 2011.97 720.5 2044 720.5L2044 720.517C2015.97 720.517 1992.59 740.57 1987.18 767.228L1986 779 1986 779 1984.82 767.228C1979.41 740.57 1956.03 720.517 1928 720.517L1928 720.5C1960.03 720.5 1986 694.309 1986 662Z" fill="#FFFFFF" fill-rule="evenodd"/><path d="M1690.5 1226C1690.5 1258.31 1716.69 1284.5 1749 1284.5L1749 1284.52C1720.73 1284.52 1697.14 1304.57 1691.69 1331.23L1690.5 1343 1690.5 1343 1689.31 1331.23C1683.86 1304.57 1660.27 1284.52 1632 1284.52L1632 1284.5C1664.31 1284.5 1690.5 1258.31 1690.5 1226Z" fill="#FFFFFF" fill-rule="evenodd"/><path d="M1743 859C1743 891.309 1768.97 917.5 1801 917.5L1801 917.517C1772.97 917.517 1749.59 937.57 1744.18 964.228L1743 976 1743 976 1741.82 964.228C1736.41 937.57 1713.03 917.517 1685 917.517L1685 917.5C1717.03 917.5 1743 891.309 1743 859Z" fill="#FFFFFF" fill-rule="evenodd"/><path d="M2191 819.5C2191 814.805 2194.81 811 2199.5 811 2204.19 811 2208 814.805 2208 819.5 2208 824.194 2204.19 828 2199.5 828 2194.81 828 2191 824.194 2191 819.5Z" fill="#FFFFFF" fill-rule="evenodd"/><path d="M2395 1053.5C2395 1048.81 2398.81 1045 2403.5 1045 2408.19 1045 2412 1048.81 2412 1053.5 2412 1058.19 2408.19 1062 2403.5 1062 2398.81 1062 2395 1058.19 2395 1053.5Z" fill="#FFFFFF" fill-rule="evenodd"/><path d="M2721 1048.5C2721 1043.81 2724.58 1040 2729 1040 2733.42 1040 2737 1043.81 2737 1048.5 2737 1053.19 2733.42 1057 2729 1057 2724.58 1057 2721 1053.19 2721 1048.5Z" fill="#FFFFFF" fill-rule="evenodd"/><path d="M2517 1220.5C2517 1215.81 2520.58 1212 2525 1212 2529.42 1212 2533 1215.81 2533 1220.5 2533 1225.19 2529.42 1229 2525 1229 2520.58 1229 2517 1225.19 2517 1220.5Z" fill="#FFFFFF" fill-rule="evenodd"/><path d="M2127 1019C2127 1014.58 2130.81 1011 2135.5 1011 2140.19 1011 2144 1014.58 2144 1019 2144 1023.42 2140.19 1027 2135.5 1027 2130.81 1027 2127 1023.42 2127 1019Z" fill="#FFFFFF" fill-rule="evenodd"/><path d="M2411 705C2411 700.582 2414.81 697 2419.5 697 2424.19 697 2428 700.582 2428 705 2428 709.418 2424.19 713 2419.5 713 2414.81 713 2411 709.418 2411 705Z" fill="#FFFFFF" fill-rule="evenodd"/></g></svg>